<svg width="96" height="85" viewBox="0 0 96 85" fill="none" xmlns="http://www.w3.org/2000/svg">
<mask id="mask0_1782_408" style="mask-type:luminance" maskUnits="userSpaceOnUse" x="0" y="0" width="96" height="85" fill="#000000">
<path d="M96 0H0V84.48H96V0Z" fill="#6b6b7a"/>
</mask>
<g mask="url(#mask0_1782_408)">
<path d="M95.9018 70.0723H55.1198C55.0523 70.1204 55.0233 70.1312 55.0103 70.1519C54.3833 71.147 53.7488 72.1376 53.1349 73.1406C52.6522 73.9292 52.2846 74.7646 52.2287 75.7068C52.206 76.4873 52.2934 77.2671 52.4885 78.0231C52.8483 79.6283 53.4209 81.1673 53.9631 82.7157C54.1302 83.1931 54.3 83.6696 54.4654 84.1473C54.5 84.2455 54.5243 84.3472 54.5631 84.48C54.4992 84.4767 54.4357 84.4672 54.3736 84.4516C52.8029 83.8151 51.2123 83.2229 49.6691 82.5261C48.0035 81.7786 46.4924 80.7263 45.2135 79.4236C43.8884 78.0502 42.8581 76.4203 42.1861 74.6341C41.6894 73.3613 41.255 72.064 40.7922 70.7777C40.7045 70.5337 40.6145 70.2905 40.5092 70.0018L0 70.0974C0.0260977 46.7147 0.0524263 23.3489 0.0789858 0C0.274718 0.064086 0.427667 0.108427 0.576458 0.164199C10.4602 3.86421 20.3443 7.56278 30.2289 11.2599C36.1225 13.4518 42.0411 15.5762 47.9991 17.589C48.266 17.6856 48.5588 17.6827 48.8236 17.5807C58.3345 14.2176 67.8552 10.882 77.3576 7.49355C83.4598 5.3174 89.5355 3.06435 95.6234 0.846108C95.7367 0.804885 95.8522 0.769724 95.9676 0.731619C96.0409 1.03906 95.9764 69.654 95.9018 70.0723ZM92.9052 67.0552C92.9368 46.3783 92.9686 25.7235 93.0006 5.09068C92.7983 5.15459 92.6561 5.1946 92.5175 5.24396C83.5777 8.45848 74.6451 11.6924 65.6968 14.882C60.0833 16.8828 54.4455 18.8155 48.8217 20.7869C48.5553 20.886 48.2619 20.8849 47.9962 20.7839C46.4852 20.2605 44.9649 19.7643 43.455 19.2377C34.24 16.023 25.0893 12.6282 15.9486 9.21054C11.8123 7.66439 7.67975 6.10958 3.5509 4.54612C3.41683 4.49554 3.27947 4.45397 3.13328 4.40496C3.04078 5.35759 3.01497 66.7143 3.11076 67.058L42.5491 66.965C42.6238 67.1332 42.6913 67.2667 42.7435 67.4061C43.2158 68.6743 43.6788 69.9458 44.1578 71.2114C44.5587 72.2722 44.9362 73.3446 45.3971 74.3794C46.2021 76.1785 47.5144 77.7038 49.1732 78.7684C49.2846 78.8418 49.4015 78.907 49.5823 79.0156C49.5016 78.5985 49.4307 78.2559 49.3699 77.9117C49.1427 76.6329 49.0961 75.3561 49.4292 74.0861C49.7058 73.1106 50.1265 72.1819 50.6774 71.3306C51.3091 70.3063 51.9559 69.2909 52.591 68.2687C52.836 67.8745 53.0667 67.4719 53.314 67.0552H92.9052Z" fill="#6b6b7a" fill-opacity="0.99"/>
<path d="M8.13832 56.7551L12.0902 46.6616C13.0964 50.0969 14.0822 53.4644 15.0695 56.8318C15.0924 56.8303 15.1154 56.8291 15.1388 56.8273C15.1717 56.5379 15.2126 56.249 15.2365 55.9591C15.4402 53.4919 15.6419 51.0246 15.8417 48.557C16.1341 44.9305 16.4244 41.3041 16.7128 37.6776C16.9447 34.76 17.1644 31.8406 17.4032 28.9241C17.6844 25.4891 17.9742 22.0548 18.2726 18.621C18.4285 16.8228 18.6076 15.0262 18.7773 13.229C18.7884 13.1112 18.8101 12.9946 18.8354 12.8183L21.8985 13.9331C21.8985 14.0692 21.907 14.1781 21.8973 14.2854C21.7241 16.1785 21.5455 18.0711 21.3738 19.9641C21.1909 21.9802 21.011 23.9963 20.8341 26.0126C20.6536 28.0286 20.4724 30.0445 20.2904 32.0604C20.1447 33.6813 19.999 35.3023 19.853 36.9231C19.6748 38.8845 19.4952 40.8456 19.3143 42.8065C19.1385 44.6996 18.9599 46.5922 18.7784 48.4844C18.5809 50.5263 18.3831 52.5681 18.1721 54.6088C17.9736 56.5265 17.7685 58.444 17.5458 60.3592C17.4037 61.5813 17.2246 62.7988 17.0608 64.018C17.0437 64.1043 17.0219 64.1896 16.9955 64.2736H14.7394L11.5711 56.9687C11.4782 57.1315 11.4164 57.2285 11.3665 57.3296C10.2773 59.5526 9.13881 61.7495 7.91141 63.9004C7.85361 64.0365 7.75429 64.1508 7.62762 64.2271C7.50096 64.3034 7.35342 64.3378 7.20608 64.3252C6.53765 64.3037 5.868 64.319 5.14258 64.319C5.15713 45.4947 5.17976 26.7019 5.21048 7.94067C5.56643 7.96787 7.53814 8.6567 8.17245 8.97419C8.17753 16.9049 8.18186 24.8538 8.18544 32.8209C8.1799 40.7679 8.1553 48.7151 8.13884 56.7553" fill="#6b6b7a" fill-opacity="0.99"/>
<path d="M66.7758 16.5422L72.5544 14.52C72.5852 14.6733 72.6209 14.802 72.636 14.9328C72.99 18.0033 73.349 21.0729 73.6926 24.1447C74.0676 27.5016 74.4263 30.8609 74.7953 34.2185C75.2211 38.0931 75.6483 41.9671 76.0771 45.8406C76.3922 48.7088 76.6967 51.5783 77.0159 54.4464C77.3776 57.6947 77.7448 60.9424 78.1175 64.1896C78.1173 64.2407 78.1128 64.2916 78.104 64.342C76.9468 64.4053 75.787 64.404 74.6299 64.3382C74.4097 62.4232 74.1916 60.5261 73.968 58.5807C71.865 58.5204 69.7684 58.5135 67.6434 58.5597C67.6029 60.4996 67.5638 62.3849 67.5232 64.3309C66.2863 64.3829 65.0506 64.3463 63.7707 64.3574C63.7627 64.1842 63.7478 64.0408 63.7503 63.8967C63.8195 59.7791 64.0101 55.666 64.2477 51.5553C64.3908 49.0833 64.5322 46.6115 64.6943 44.1411C64.8601 41.6159 65.0469 39.0923 65.2312 36.5687C65.4018 34.2221 65.577 31.8759 65.757 29.53C65.9312 27.2799 66.1207 25.0312 66.2976 22.781C66.4517 20.8174 66.5967 18.8533 66.746 16.8891C66.7531 16.7942 66.7633 16.6986 66.7767 16.5417M73.4851 55.6558C73.4851 55.4599 73.4905 55.3267 73.4842 55.1945C73.4567 54.607 73.438 54.019 73.394 53.4328C73.1957 50.7878 73.0068 48.1416 72.7811 45.4986C72.5939 43.3055 72.3703 41.1153 72.142 38.926C72.0315 37.8658 71.8822 36.8093 71.7332 35.7538C71.6456 35.1366 71.3927 34.9645 70.7693 35.0649C70.4594 35.1146 70.1524 35.1862 69.8469 35.2593C69.4485 35.3549 69.4348 35.3734 69.3813 35.7662C69.2058 37.0521 68.9862 38.3307 68.8996 39.6305C68.7834 41.376 68.5878 43.1164 68.4466 44.8612C68.3162 46.4695 68.1899 48.0785 68.1019 49.6893C68.0027 51.5051 67.9476 53.3234 67.8768 55.1405C67.8722 55.2584 67.892 55.3776 67.9046 55.5562C69.7561 55.5234 71.578 55.7467 73.4856 55.6564" fill="#6b6b7a" fill-opacity="0.99"/>
<path d="M33.2436 64.3352C32.0014 64.4226 30.7546 64.4226 29.5124 64.3352C29.4688 63.9542 29.4123 63.58 29.3851 63.203C29.2869 61.852 29.1984 60.501 29.1062 59.151C29.1017 59.0828 29.0998 59.0142 29.0917 58.9464C29.0695 58.7665 28.973 58.6953 28.7856 58.6998C28.3353 58.7105 27.8828 58.7026 27.4314 58.7028C25.9267 58.7028 24.4215 58.701 22.9168 58.7066C22.5121 58.7081 22.4953 58.7175 22.4562 59.1049C22.3696 59.962 22.3019 60.8209 22.2267 61.6789C22.1527 62.523 22.0794 63.367 22.0015 64.2642C20.8978 64.3221 19.8159 64.3543 18.6758 64.3234C20.2647 47.7974 21.8262 31.3081 23.6834 14.8025C23.8958 14.8718 24.0499 14.9165 24.2008 14.9707C25.3842 15.3949 26.5666 15.8228 27.7517 16.2441C27.837 16.2656 27.9131 16.3139 27.969 16.3817C28.0249 16.4496 28.0577 16.5335 28.0626 16.6213C28.2992 18.4105 28.5521 20.1977 28.7901 21.9865C29.0578 23.9925 29.3196 25.9991 29.5755 28.0063C29.8429 30.1086 30.1046 32.2118 30.3607 34.3158C30.6011 36.2838 30.8364 38.2525 31.0665 40.2221C31.2778 42.056 31.4799 43.8909 31.6728 45.7269C31.8832 47.7124 32.0863 49.6985 32.2821 51.6852C32.4449 53.3594 32.6029 55.0343 32.7325 56.7111C32.9012 58.8791 33.0413 61.0492 33.1906 63.2186C33.2152 63.5726 33.2237 63.9277 33.2417 64.3359M25.462 55.6746V55.716C26.445 55.716 27.4281 55.7077 28.411 55.7193C28.968 55.7259 28.9928 55.7134 28.9479 55.1541C28.8106 53.4373 28.6708 51.7205 28.5384 50.0032C28.4052 48.2725 28.3207 46.537 28.1433 44.8108C27.8418 41.8743 27.486 38.9433 27.1456 36.011C27.1068 35.7409 27.046 35.4744 26.9639 35.2142C26.9348 35.0858 26.8617 34.9716 26.7573 34.8914C26.653 34.8111 26.5239 34.7697 26.3923 34.7744C26.1744 34.7661 25.9575 34.7209 25.7395 34.7136C25.1188 34.6929 24.885 34.8649 24.7773 35.4726C24.6487 36.1991 24.5337 36.9289 24.4464 37.6613C24.2328 39.4531 24.0302 41.2461 23.8386 43.0403C23.6195 45.0928 23.4141 47.1468 23.2072 49.2007C23.076 50.5063 22.9489 51.8124 22.8262 53.1188C22.759 53.826 22.686 54.533 22.6417 55.2418C22.62 55.5835 22.7006 55.6443 23.0401 55.6691C23.1626 55.6779 23.2861 55.6748 23.4092 55.6749C24.0931 55.6749 24.777 55.6749 25.4609 55.6749" fill="#6b6b7a" fill-opacity="0.99"/>
<path d="M61.9868 60.0071L61.6867 64.3473C57.6777 64.3861 53.7042 64.3507 49.6809 64.33C49.6702 64.1493 49.6544 63.992 49.6525 63.8346C49.6468 62.1648 49.7979 60.4982 50.1039 58.8567C50.6168 55.9674 51.4671 53.1702 52.4217 50.4017C53.9688 45.9141 55.2503 41.3482 56.4733 36.7638C57.6079 32.5113 58.78 28.2686 59.9349 24.0215C59.9657 23.9082 59.9868 23.7923 60.0256 23.6201L49.7448 27.1606V22.7093C50.204 22.4418 64.2574 17.4811 64.8145 17.3984C64.827 17.4742 64.8341 17.5507 64.8356 17.6274C64.7606 19.157 64.6951 20.6874 64.6026 22.216C64.5334 23.37 64.2138 24.4794 63.9001 25.5827C62.4867 30.5527 61.0625 35.5196 59.6277 40.4834C58.242 45.2765 56.8373 50.0639 55.4481 54.856C55.0791 56.1292 54.7353 57.4099 54.3845 58.6883C54.306 58.9644 54.2418 59.2443 54.1921 59.527C54.1277 59.9163 54.1876 59.9842 54.5877 59.987C56.1335 59.9977 57.6794 60.0046 59.2254 60.0076C60.0599 60.0076 60.8945 59.9903 61.729 59.9835C61.7947 59.9835 61.8605 59.9946 61.9868 60.0061" fill="#6b6b7a" fill-opacity="0.99"/>
<path d="M85.5071 64.4144H82.0336C82.0248 64.2556 82.0104 64.1101 82.0094 63.9641C81.995 61.9807 81.9747 59.9977 81.9707 58.0141C81.9609 54.02 81.9557 50.0258 81.9551 46.0314C81.9551 41.3531 81.9597 36.6749 81.9688 31.9968C81.9711 29.0968 81.9756 26.197 81.9671 23.2972C81.9612 21.3003 81.935 19.3034 81.9182 17.3065C81.917 17.1709 81.9182 17.0351 81.9182 16.8316C80.6806 17.2314 79.5184 17.6919 78.3431 18.1151C77.1737 18.5363 76.0011 18.9484 74.7787 19.3828C74.5497 17.5658 74.3254 15.7849 74.0957 13.9626C79.6774 11.822 85.3498 9.97165 91.0153 7.88989C91.0525 9.80156 91.0887 11.6502 91.1258 13.5475L85.8774 15.4366C85.7543 31.7479 85.6311 48.0737 85.5078 64.4139" fill="#6b6b7a" fill-opacity="0.99"/>
<path d="M38.2344 64.2676C37.7038 64.3736 35.3905 64.3542 34.6987 64.2455C34.6723 50.8134 34.6456 37.3685 34.6189 23.9108C34.4498 23.8438 34.2897 23.7755 34.1248 23.7158C33.021 23.3126 31.919 22.904 30.8102 22.5148C30.699 22.4914 30.5989 22.4313 30.526 22.344C30.4532 22.2568 30.4118 22.1476 30.4087 22.034C30.2674 20.7431 30.1009 19.4551 29.9455 18.1658C29.9001 17.7887 29.8619 17.4109 29.8125 16.9634L43.7816 22.0925C43.7376 23.7946 43.695 25.4714 43.6494 27.2138L38.4658 25.3269C38.4485 25.5244 38.428 25.6682 38.4265 25.8119C38.4107 27.3164 38.3918 28.8207 38.3858 30.325C38.3593 37.8746 38.3343 45.4243 38.3108 52.974C38.2962 56.5981 38.2605 60.2223 38.2345 63.8464C38.2335 63.9818 38.2345 64.1173 38.2345 64.2675" fill="#6b6b7a" fill-opacity="0.99"/>
<path d="M44.8101 22.3262L48.3286 22.8387C48.3413 22.9372 48.3598 23.0408 48.3662 23.1451C48.373 23.2542 48.3679 23.364 48.3679 23.4742C48.3728 27.1131 48.3777 30.752 48.3827 34.3908C48.3934 40.5468 48.405 46.7028 48.4173 52.8586C48.4241 56.5112 48.4299 60.1637 48.4346 63.8163C48.4346 63.9767 48.4346 64.1369 48.4346 64.3279H44.9738C44.9608 64.1788 44.9392 64.0335 44.9369 63.8873C44.8867 61.5078 44.8157 59.1287 44.7952 56.7488C44.7564 52.2212 44.7344 47.6935 44.7291 43.1655C44.7242 39.6226 44.7531 36.0795 44.7679 32.5366C44.7816 29.2948 44.7959 26.0528 44.8106 22.8106C44.8106 22.6634 44.8106 22.5162 44.8106 22.327" fill="#6b6b7a" fill-opacity="0.99"/>
</g>
</svg>