<?xml version="1.0" encoding="utf-8"?>
<!-- License: GPL. Made by Viglino: https://github.com/Viglino/font-gis -->
<svg width="800px" height="800px" viewBox="0 0 100 100" xmlns="http://www.w3.org/2000/svg" xmlns:xlink="http://www.w3.org/1999/xlink" aria-hidden="true" role="img" class="iconify iconify--gis" preserveAspectRatio="xMidYMid meet"><path d="M50 0a18.955 18.955 0 0 0-18.955 18.957A18.955 18.955 0 0 0 47.5 37.747V97.5A2.5 2.5 0 0 0 50 100a2.5 2.5 0 0 0 2.5-2.5V37.746a18.955 18.955 0 0 0 16.455-18.789A18.955 18.955 0 0 0 50 0zm-4.832 8.549a5.947 5.947 0 0 1 5.947 5.947a5.947 5.947 0 0 1-5.947 5.947a5.947 5.947 0 0 1-5.947-5.947a5.947 5.947 0 0 1 5.947-5.947z" fill="#a23579"></path></svg>