<svg xmlns="http://www.w3.org/2000/svg"  viewBox="0 0 30 30" width="160px" height="160px"><path fill="#66798f" d="M21 26L19 26 22 30 24 30zM9 26L11 26 8 30 6 30z"/><path fill="#f78f8f" d="M8,27.5c-1.4,0-2.5-1.1-2.5-2.5V11C5.5,8,8,5.5,11,5.5h8c3,0,5.5,2.5,5.5,5.5v14 c0,1.4-1.1,2.5-2.5,2.5H8z"/><path fill="#c74343" d="M19,6c2.8,0,5,2.2,5,5v14c0,1.1-0.9,2-2,2H8c-1.1,0-2-0.9-2-2V11c0-2.8,2.2-5,5-5H19 M19,5h-8 c-3.3,0-6,2.7-6,6v14c0,1.7,1.3,3,3,3h14c1.7,0,3-1.3,3-3V11C25,7.7,22.3,5,19,5L19,5z"/><path fill="#ffc49c" d="M5.5,19.5V11C5.5,8,8,5.5,11,5.5h8c3,0,5.5,2.5,5.5,5.5v8.5H5.5z"/><path fill="#a16a4a" d="M19,6c2.8,0,5,2.2,5,5v8H6v-8c0-2.8,2.2-5,5-5H19 M19,5h-8c-3.3,0-6,2.7-6,6v9h20v-9 C25,7.7,22.3,5,19,5L19,5z"/><path fill="#c2e8ff" d="M5.5 11.5H24.5V19.5H5.5z"/><path fill="#a16a4a" d="M24,12v7H6v-7H24 M25,11H5v9h20V11L25,11z"/><path fill="#fff" d="M20.5 22A1.5 1.5 0 1 0 20.5 25 1.5 1.5 0 1 0 20.5 22zM9.5 22A1.5 1.5 0 1 0 9.5 25 1.5 1.5 0 1 0 9.5 22z"/><path fill="#66798f" d="M23.6,4.9l-1.2-1.2c-1-1-2.4-1.6-3.9-1.6h-7C10,2,8.6,2.6,7.6,3.6L6.4,4.9L5.6,4.1l1.2-1.2 C8.1,1.7,9.7,1,11.5,1h7c1.7,0,3.4,0.7,4.6,1.9l1.2,1.2L23.6,4.9z"/><path fill="#a16a4a" d="M20 11H21V20H20z"/><path fill="#66798f" d="M17 1H18V5H17zM12 1H13V5H12z"/><path fill="#a16a4a" d="M9 11H10V20H9z"/></svg>